<svg xmlns="http://www.w3.org/2000/svg" fill="none" viewBox="0 0 15 10" aria-hidden="true" focusable="false" width="1em" height="1em">
                            <path fill="#FFFBF5" d="M14.0219 9.99038H12.5916C11.3062 9.99038 10.0735 9.46413 9.16462 8.52738C8.25573 7.59063 7.74512 6.32013 7.74512 4.99537C7.74512 3.67062 8.25573 2.40012 9.16462 1.46337C10.0735 0.526625 11.3062 0.000366211 12.5916 0.000366211H14.0219V9.99038Z">
                            </path>
                            <path fill="#FFFBF5" d="M0 0H1.42977C2.06622 -9.77448e-09 2.69643 0.1292 3.28443 0.380223C3.87243 0.631245 4.4067 0.999175 4.85674 1.46301C5.30678 1.92683 5.66377 2.47748 5.90732 3.0835C6.15088 3.68953 6.27624 4.33906 6.27624 4.99501C6.27624 5.65096 6.15088 6.3005 5.90732 6.90652C5.66377 7.51254 5.30678 8.06319 4.85674 8.52702C4.4067 8.99085 3.87243 9.35878 3.28443 9.6098C2.69643 9.86082 2.06622 9.99002 1.42977 9.99002H0V0Z">
                            </path>
                            <title>Dolby Atmos</title>
                        </svg>